<svg xmlns="http://www.w3.org/2000/svg" width="14" height="11" viewBox="0 0 14 11"><g fill="#FFAA34" fill-rule="evenodd"><path d="M6.986 1.832c2.195.02 3.57-.107 3.755 2.168h2.676c0-3.525-3.286-4-6.5-4-3.215 0-6.5.475-6.5 4h2.655c.205-2.319 1.738-2.188 3.914-2.168zM1.917 6c.73 0 1.336.043 1.471-.668.018-.096.029-.205.029-.332h-3c0 1.056.671 1 1.5 1zM10.445 5h-.028c0 .134.01.25.031.351.142.691.745.648 1.469.648.828 0 1.5.058 1.5-.999h-2.972z"/><path fill-rule="nonzero" d="M9.603 4.533v-.361c0-.162-.197-.172-.44-.172h-.399c-.243 0-.44.01-.44.172v.552H5.51v-.552C5.51 4.01 5.313 4 5.07 4h-.398c-.243 0-.44.01-.44.172V4.848c-.642.629-2.74 3.304-2.815 3.628v2.162c0 .2.173.362.384.362h10.232c.212 0 .384-.162.384-.362V8.465c-.076-.314-2.173-2.989-2.814-3.617v-.315zM5.372 8.767c-.206 0-.373-.157-.373-.352 0-.194.167-.352.373-.352s.373.158.373.352c0 .195-.167.352-.373.352zm0-1.207c-.206 0-.373-.157-.373-.352 0-.194.167-.352.373-.352s.373.158.373.352c0 .195-.167.352-.373.352zm0-1.206c-.206 0-.373-.158-.373-.352 0-.195.167-.352.373-.352s.373.157.373.352c0 .194-.167.352-.373.352zm1.534 2.413c-.205 0-.373-.157-.373-.352 0-.194.168-.352.373-.352.207 0 .373.158.373.352 0 .195-.166.352-.373.352zm0-1.207c-.205 0-.373-.157-.373-.352 0-.194.168-.352.373-.352.207 0 .373.158.373.352 0 .195-.166.352-.373.352zm0-1.206c-.205 0-.373-.158-.373-.352 0-.195.168-.352.373-.352.207 0 .373.157.373.352 0 .194-.166.352-.373.352zm1.535 2.413c-.206 0-.373-.157-.373-.352 0-.194.167-.352.373-.352s.373.158.373.352c0 .195-.167.352-.373.352zm0-1.207c-.206 0-.373-.157-.373-.352 0-.194.167-.352.373-.352s.373.158.373.352c0 .195-.167.352-.373.352zm0-1.206c-.206 0-.373-.158-.373-.352 0-.195.167-.352.373-.352s.373.157.373.352c0 .194-.167.352-.373.352z"/></g></svg>