<svg xmlns="http://www.w3.org/2000/svg" width="22" height="21" viewBox="0 0 22 21">
    <path fill="#202A31" d="M19.575.09H2.504C1.463.09.618.93.618 1.969v17.017c0 1.038.845 1.88 1.886 1.88h17.071c1.041 0 1.885-.842 1.885-1.88V1.97c0-1.038-.844-1.88-1.885-1.88zM7.068 18.029c0 .302-.246.547-.549.547H4.184c-.303 0-.549-.245-.549-.547v-9.76c0-.301.246-.546.549-.546h2.335c.303 0 .549.245.549.547v9.759zM5.35 6.803c-1.225 0-2.218-.99-2.218-2.212 0-1.221.993-2.212 2.218-2.212 1.226 0 2.22.99 2.22 2.212 0 1.221-.994 2.212-2.22 2.212zm13.922 11.27c0 .278-.226.503-.504.503h-2.507c-.278 0-.504-.225-.504-.503v-4.578c0-.683.201-2.992-1.79-2.992-1.545 0-1.858 1.58-1.921 2.29v5.28c0 .278-.226.503-.504.503H9.119c-.279 0-.505-.225-.505-.503V8.226c0-.278.226-.503.505-.503h2.424c.278 0 .504.225.504.503v.851c.573-.857 1.424-1.518 3.236-1.518 4.013 0 3.99 3.737 3.99 5.79v4.724z"/>
</svg>
