<svg xmlns="http://www.w3.org/2000/svg" width="21" height="21" viewBox="0 0 21 21"><g fill="none" fill-rule="evenodd" transform="translate(.118 .09)"><rect width="20.842" height="20.776" fill="#F8F9FA" rx="3.918"/><path fill="#202A31" fill-rule="nonzero" d="M18.758 0H2.084C.938 0 0 .935 0 2.078v16.62c0 1.143.938 2.078 2.084 2.078h16.674c1.146 0 2.084-.935 2.084-2.078V2.078C20.842.935 19.904 0 18.758 0zM16.36 7.583c-.104 4.779-3.126 8.103-7.712 8.31-1.875.105-3.23-.519-4.48-1.246 1.354.208 3.126-.311 4.064-1.143-1.355-.103-2.189-.83-2.606-1.973.417.104.834 0 1.147 0-1.25-.416-2.085-1.143-2.189-2.805.313.208.73.312 1.147.312-.938-.52-1.564-2.494-.834-3.74 1.355 1.454 3.022 2.7 5.731 2.909-.729-2.91 3.231-4.467 4.794-2.494.73-.103 1.25-.415 1.772-.623-.209.727-.626 1.143-1.147 1.558.521-.104 1.043-.207 1.46-.415-.105.52-.626.935-1.147 1.35z"/></g></svg>