<svg width="1174" height="737" xmlns="http://www.w3.org/2000/svg">

 <g>
  <title>background</title>
  <rect fill="none" id="canvas_background" height="739" width="1176" y="-1" x="-1"/>
 </g>
 <g>
  <title>Layer 1</title>
  <path id="svg_1" fill="#ffb9b9" d="m377.237305,412.134153l-7.2373,42.31058s1.67016,39.527 15.03143,38.41358s0,-41.19715 0,-41.19715l12.8045,-35.07324l-20.59863,-4.45377z"/>
  <path id="svg_2" fill="#e6e6e6" d="m402.846435,349.224943l-5.0105,62.90918l-23.9389,-3.3403l8.35077,-52.33148l0,-45.09418l9.46423,-9.46423l11.1344,47.32101z"/>
  <polygon id="svg_3" fill="#3f3d56" points="375.010009765625,416.5870056152344 399.5059814453125,421.0409851074219 400.6199951171875,409.3500061035156 372.78399658203125,408.23699951171875 375.010009765625,416.5870056152344 "/>
  <polygon id="svg_4" fill="#ffb9b9" points="413.7019958496094,243.7259979248047 416.2080078125,262.9330139160156 418.7129821777344,282.1400146484375 452.6729736328125,277.1300048828125 449.3320007324219,243.7259979248047 413.7019958496094,243.7259979248047 "/>
  <path id="svg_5" fill="#ffb9b9" d="m500.272095,402.669953l-7.79407,30.06278l-6.6806,10.57769s5.0105,20.0419 10.02093,19.48514s8.35077,-19.48517 8.35077,-19.48517l18.92841,-40.64044l-22.82544,0z"/>
  <path id="svg_6" fill="#2f2e41" d="m407.300175,425.495333s-3.897,18.92841 -12.80451,27.2792s20.59857,229.92466 20.59857,229.92466s20.59864,6.6806 30.61951,7.79406s3.897,-117.46753 3.897,-117.46753l0,-32.28961s20.04187,127.48847 20.04187,129.15863l0,8.35077l10.02094,10.57764s17.2583,-4.45374 20.04187,0s10.021,5.01044 12.2478,6.6806s-12.8045,-231.59479 -12.8045,-231.59479l-15.58814,-24.4956l-76.27041,-13.91803z"/>
  <circle id="svg_7" fill="#ffb9b9" r="26.722481" cy="227.86041" cx="430.68231"/>
  <path id="svg_8" fill="#e6e6e6" d="m481.343685,318.605473c0,1.11343 16.14484,46.76434 15.03144,48.43451s1.11346,30.6195 1.11346,30.6195l28.94934,0a19.71454,19.71454 0 0 0 1.11341,-6.68063c0,-3.897 -5.01056,-46.76434 -10.57776,-72.93008s-22.82548,-37.85685 -22.82548,-37.85685l-3.897,2.22687s-8.90741,35.07323 -8.90741,36.18668z"/>
  <polygon id="svg_9" fill="#3f3d56" points="497.4880065917969,406.5669860839844 521.9840087890625,406.010009765625 530.8919982910156,397.65899658203125 495.8179931640625,395.4320068359375 497.4880065917969,406.5669860839844 "/>
  <path id="svg_10" fill="#3f3d56" d="m430.682375,443.310363l5.01044,19.48514s20.04187,-3.897 27.83593,-6.6806s29.506,-5.56717 29.506,-5.56717l-7.23737,-13.36124l-55.115,6.12387z"/>
  <polygon id="svg_11" fill="#3f3d56" points="394.4960021972656,439.4129943847656 391.71197509765625,456.6709899902344 416.2080078125,461.6820068359375 422.3320007324219,443.30999755859375 394.4960021972656,439.4129943847656 "/>
  <path id="svg_12" fill="#e6e6e6" d="m416.207645,272.954623s-2.22681,5.01047 -16.70154,10.02093s-17.2583,28.39264 -17.2583,28.39264s17.25824,46.76435 16.70154,50.10465s2.22686,11.13437 2.22686,11.13437l-2.78357,47.321l-5.5672,21.15531c49.548,18.37167 96.869,-2.7836 96.869,-2.7836s-2.22693,-20.59858 -1.11346,-26.16578s2.78363,-56.78527 2.78363,-56.78527l2.78357,-75.157l-32.84638,-11.691l-5.5672,-4.45373s-1.1134,-12.80457 -2.78357,-13.918s-6.1239,4.45376 -12.2478,11.13437s-18.9284,5.56717 -22.82544,3.3403s-5.5672,-1.11343 -5.5672,-1.11343c-2.78355,2.22687 3.89706,9.46424 3.89706,9.46424z"/>
  <path id="svg_13" fill="#2f2e41" d="m450.492435,216.608183c-3.3086,-9.17883 -16.97016,-2.02789 -29.671,0.42691s-12.12952,26.69181 -12.12952,26.69181s-7.79407,-12.87058 -7.79407,-27.27918s6.84912,-10.99283 7.80969,-13.12744s3.5221,-0.64038 3.5221,-0.64038s1.38751,-5.33653 5.2298,-4.58942a5.44628,5.44628 0 0 0 5.65673,-2.13461c18.57111,-9.92592 15.68934,-0.74712 22.73359,0.53365s5.97693,2.98844 8.21826,7.0442a77.11545,77.11545 0 0 1 4.48266,11.31339a26.20111,26.20111 0 0 0 0.74714,7.79132c1.06732,4.48269 -1.70771,8.64517 -1.70771,8.64517a69.97219,69.97219 0 0 1 -7.09767,-14.67542z"/>
  <ellipse id="svg_14" fill="#ffb9b9" ry="3.34032" rx="2.50525" cy="233.70594" cx="408.41357"/>
  <path id="svg_15" fill="#2f2e41" d="m442.186275,681.705533l2.93647,23.49183s2.93646,5.873 0,8.80944s0,10.76709 0,10.76709s-6.85175,5.87293 -22.513,4.89411s-11.74591,-13.70355 -7.83063,-19.57654s3.91528,-17.6189 3.91528,-17.6189l3.91529,-11.74591l19.57659,0.97888z"/>
  <path id="svg_16" fill="#2f2e41" d="m479.303165,681.705533l-2.93647,23.49183s-2.93646,5.873 0,8.80944s0,10.76709 0,10.76709s6.85175,5.87293 22.513,4.89411s11.74592,-13.70355 7.83063,-19.57654s-3.91528,-17.6189 -3.91528,-17.6189l-3.91535,-11.74591l-19.57653,0.97888z"/>
  <path id="svg_17" fill="#3f3d56" d="m974.682185,174.947253l-3.99877,0l0,-109.54534a63.40185,63.40185 0 0 0 -63.4018,-63.40189l-232.08673,0a63.40185,63.40185 0 0 0 -63.402,63.40172l0,600.97439a63.40186,63.40186 0 0 0 63.4018,63.40191l232.08663,0a63.40186,63.40186 0 0 0 63.402,-63.40167l0,-413.45288l3.99884,0l0.00003,-77.97624z"/>
  <path id="svg_18" fill="#fff" d="m909.839665,18.495023l-30.295,0a22.49484,22.49484 0 0 1 -20.82715,30.99052l-132.95942,0a22.49482,22.49482 0 0 1 -20.82715,-30.99056l-28.29563,0a47.34781,47.34781 0 0 0 -47.34784,47.34774l0,600.09255a47.34781,47.34781 0 0 0 47.34778,47.34784l233.20441,0a47.3478,47.3478 0 0 0 47.34783,-47.34778l0,0l0,-600.09261a47.34776,47.34776 0 0 0 -47.34783,-47.3477z"/>
  <path id="svg_19" fill="#ffaa34" d="m666.200475,91.971543a5.00588,5.00588 0 0 0 -5,5l0,549.83548a5.00589,5.00589 0 0 0 5,5l254.07421,0a5.00589,5.00589 0 0 0 5,-5l0,-549.83548a5.00588,5.00588 0 0 0 -5,-5l-254.07421,0z"/>
  <path id="svg_20" fill="#fff" d="m767.836625,470.675153c0,-38.91466 7.41029,-81.62148 32.41517,-114.96131c34.81337,-46.41844 32.9557,-103.608 25.265,-143.40939a312.51474,312.51474 0 0 0 -25.4297,-76.34469l3.36175,-1.75307a316.486,316.486 0 0 1 25.77125,77.27954c7.85457,40.58351 9.73167,98.94487 -25.936,146.50271c-66.81942,89.09287 -6.80588,248.62422 -6.19406,250.22365l-3.53946,1.35877a459.41165,459.41165 0 0 1 -22.47616,-92.32782a352.972,352.972 0 0 1 -3.23779,-46.56839z"/>
  <path id="svg_21" opacity="0.3" fill="#fff" d="m801.767905,135.064713s31.68,130.79728 -11.6956,221.78668s0.32193,252.11648 0.32193,252.11648"/>
  <path id="svg_22" opacity="0.3" fill="#fff" d="m752.556025,258.547023a249.18774,249.18774 0 0 1 4.69924,-47.0608a316.486,316.486 0 0 1 25.77126,-77.27954l3.36175,1.75307a312.51474,312.51474 0 0 0 -25.42966,76.34469c-7.68982,39.79953 -9.54841,96.99 25.265,143.40939c35.63715,47.5162 35.53718,114.07275 29.17744,161.5297a459.41231,459.41231 0 0 1 -22.47615,92.32782l-3.53947,-1.35877c0.61367,-1.60128 60.62814,-161.12893 -6.19406,-250.22365c-23.39074,-31.18677 -30.63535,-67.02304 -30.63535,-99.44191z"/>
  <path id="svg_23" opacity="0.3" fill="#fff" d="m767.820895,259.191303c0,-65.65317 23.55354,-123.95529 23.9136,-124.82986l3.50614,1.44392c-0.535,1.29768 -52.88648,130.96475 -0.12218,220.08075c53.68342,90.65712 5.76453,251.93784 5.274,253.55578l-3.62833,-1.0996c0.485,-1.60128 47.92346,-161.30294 -4.90749,-250.52539c-18.02954,-30.44839 -24.03574,-65.47558 -24.03574,-98.6256z"/>
  <path id="svg_24" opacity="0.3" fill="#fff" d="m796.403005,135.083693s-43.37562,130.7783 0,221.7677s4.09846,252.0407 4.09846,252.0407"/>
  <path id="svg_25" opacity="0.3" fill="#fff" d="m801.767905,135.083693s68.24206,130.7783 0,221.7677s-6.44807,252.0407 -6.44807,252.0407"/>
 </g>
</svg>