<svg xmlns="http://www.w3.org/2000/svg" width="70" height="70" viewBox="0 0 70 70"><g fill="none" fill-rule="evenodd"><rect width="70" height="70" fill="#E5F0FF" rx="17.778"/><g fill="#0A6CF4" fill-rule="nonzero"><path d="M42.611 2.889h-5.778v-.722C36.833.97 35.863 0 34.667 0 33.47 0 32.5.97 32.5 2.167v.722h-5.778c-.399 0-.722.323-.722.722 0 .399.323.722.722.722H32.5v3.085c-.56.242-1.006.689-1.249 1.249h-3.5c-3.542-2.888-8.627-2.888-12.17 0h-3.499c-.242-.56-.689-1.007-1.249-1.25V4.334h5.778c.399 0 .722-.323.722-.722 0-.399-.323-.722-.722-.722h-5.778v-.722C10.833.97 9.863 0 8.667 0 7.47 0 6.5.97 6.5 2.167v.722H.722c-.399 0-.722.323-.722.722 0 .399.323.722.722.722H6.5v3.085c-.876.378-1.443 1.24-1.444 2.194v2.442c.001 1.32 1.07 2.389 2.39 2.39h2.442c.954 0 1.816-.568 2.194-1.444h2.323l.799 2.395c.098.295.374.494.685.494H19.5v4.333h-1.179c-.84.002-1.556.614-1.687 1.445h-.898c-1.111.001-2.012.902-2.014 2.014v3.194c.002 1.112.903 2.013 2.014 2.014h.898c.13.83.846 1.443 1.687 1.444h6.691c.944 0 1.71-.766 1.71-1.71v-6.69c0-.945-.766-1.71-1.71-1.71h-1.179v-4.334h3.611c.311 0 .587-.199.686-.494L28.928 13h2.323c.378.876 1.24 1.443 2.195 1.444h2.442c1.319-.001 2.388-1.07 2.39-2.39V9.612c-.001-.954-.569-1.816-1.445-2.194V4.333h5.778c.399 0 .722-.323.722-.722 0-.399-.323-.722-.722-.722zM7.944 2.167c0-.4.324-.723.723-.723.399 0 .722.324.722.723v.722H7.944v-.722zm0 2.166H9.39v2.89H7.944v-2.89zm2.89 7.721c-.001.522-.424.945-.946.946H7.446c-.522 0-.945-.424-.946-.946V9.612c0-.522.424-.945.946-.945h2.442c.522 0 .945.423.945.945v2.442zm5.777 15.39h-.875c-.314 0-.569-.255-.57-.57v-3.193c.001-.315.256-.57.57-.57h.875v4.333zm8.401-5.777c.147 0 .266.119.266.265v6.691c0 .147-.12.266-.266.266h-6.691c-.147 0-.265-.119-.265-.266v-6.69c0-.147.118-.266.265-.266h6.691zm-5.388-7.223c.307-.865 1.125-1.443 2.043-1.443.918 0 1.736.578 2.042 1.443h-4.085zm2.765 1.445v4.333h-1.445V15.89h1.445zm8.667-4.333h-2.649c-.31 0-.586.198-.685.493l-.798 2.395h-1.718c-.343-1.682-1.822-2.89-3.539-2.89-1.716 0-3.196 1.208-3.538 2.89h-1.72l-.798-2.395c-.098-.295-.374-.493-.685-.493h-2.648V10.11h3.563c.17 0 .335-.06.466-.17 3.156-2.666 7.564-2.666 10.72 0 .13.11.295.17.466.17h3.563v1.445zm2.888-9.39c0-.398.324-.722.723-.722.399 0 .722.324.722.723v.722h-1.445v-.722zm0 2.167h1.445v2.89h-1.445v-2.89zm2.89 7.721c-.001.522-.424.945-.946.946h-2.442c-.522 0-.945-.424-.946-.946V9.612c0-.522.424-.945.946-.945h2.442c.522 0 .945.423.945.945v2.442z" transform="translate(13.333 20.267)"/><path d="M21.667 27.444c1.196 0 2.166-.97 2.166-2.166 0-1.197-.97-2.167-2.166-2.167-1.197 0-2.167.97-2.167 2.167.001 1.196.97 2.165 2.167 2.166zm0-2.888c.399 0 .722.323.722.722 0 .399-.323.722-.722.722-.4 0-.723-.323-.723-.722 0-.399.324-.722.723-.722z" transform="translate(13.333 20.267)"/></g></g></svg>