<svg xmlns="http://www.w3.org/2000/svg" width="70" height="70" viewBox="0 0 70 70"><g fill="none" fill-rule="evenodd"><rect width="70" height="70" fill="#E5F0FF" rx="17.778"/><g fill="#0A6CF4" fill-rule="nonzero"><path d="M19.5 0H3.9C1.75 0 0 1.75 0 3.9v31.2C0 37.25 1.75 39 3.9 39h15.6c2.15 0 3.9-1.75 3.9-3.9V3.9c0-2.15-1.75-3.9-3.9-3.9zm-2.354 1.95l-1.95 1.95H8.204l-1.95-1.95h10.892zM15.6 37.05H7.8v-.975c0-.538.437-.975.975-.975h5.85c.538 0 .975.437.975.975v.975zm5.85-1.95c0 1.075-.875 1.95-1.95 1.95h-1.95v-.975c0-1.613-1.312-2.925-2.925-2.925h-5.85c-1.613 0-2.925 1.312-2.925 2.925v.975H3.9c-1.075 0-1.95-.875-1.95-1.95V3.9c0-.95.683-1.74 1.583-1.913l3.578 3.577c.182.184.43.286.689.286h7.8c.26 0 .507-.102.69-.286l3.577-3.577c.9.173 1.583.963 1.583 1.913v31.2z" transform="translate(23.733 15.933)"/><path d="M18.525 12.675c-2.254 0-4.374-.878-5.968-2.472l-.168-.167c-.38-.382-.997-.382-1.378 0l-.168.167c-1.594 1.595-3.714 2.472-5.968 2.472-.54 0-.975.436-.975.975 0 5.29 2.06 10.264 5.801 14.005l1.31 1.31c.19.19.44.285.689.285.25 0 .5-.096.69-.286l1.309-1.31c3.74-3.74 5.801-8.714 5.801-14.004 0-.54-.436-.975-.975-.975zM12.32 26.276l-.62.62-.62-.62C7.928 23.123 6.099 19 5.873 14.578c2.163-.206 4.185-1.074 5.827-2.508 1.642 1.435 3.664 2.302 5.827 2.508-.226 4.42-2.055 8.545-5.207 11.698z" transform="translate(23.733 15.933)"/><path d="M8.775 19.5c0 1.613 1.312 2.925 2.925 2.925 1.613 0 2.925-1.312 2.925-2.925 0-1.613-1.312-2.925-2.925-2.925-1.613 0-2.925 1.312-2.925 2.925zm3.9 0c0 .538-.437.975-.975.975s-.975-.437-.975-.975.437-.975.975-.975.975.437.975.975z" transform="translate(23.733 15.933)"/></g></g></svg>