<svg xmlns="http://www.w3.org/2000/svg" width="70" height="70" viewBox="0 0 70 70"><g fill="none" fill-rule="evenodd"><rect width="70" height="70" fill="#E5F0FF" rx="17.778"/><g fill="#0A6CF4" fill-rule="nonzero" transform="translate(13.333 18.533)"><path d="M42.795 14.52L18.359.542c-1.885-1.08-4.464-.497-5.707 1.281L7.918 8.591c-.464.665-.71 1.445-.71 2.256 0 1.4.753 2.706 1.965 3.405l5.154 2.976-.931 1.243c-.505.672-.782 1.505-.782 2.345 0 .864.317 1.677.826 2.349l-1.371 2.064H5.406v-2.712c0-.499-.403-.892-.9-.892H.9c-.498 0-.901.393-.901.892v9.018c0 .498.403.902.901.902h3.604c.498 0 .901-.404.901-.902v-.9h6.663c1.812 0 3.493-.9 4.498-2.409l1.477-2.217c.284.062.571.118.864.118 1.434 0 2.784-.765 3.522-1.996l.99-1.651 7.668 4.428c.138.08.294.12.45.12.087 0 .175-.012.26-.037.237-.072.435-.239.546-.46l.667-1.338c.11.008.215.032.327.032 3.477 0 6.307-2.832 6.307-6.313 0-.382-.057-.776-.14-1.179l3.246-1.624c.297-.149.488-.45.498-.782.009-.332-.166-.643-.454-.808zM3.605 30.634H1.801v-7.208h1.802v7.208zm11.462-3.405c-.67 1.005-1.79 1.605-2.998 1.605H5.406v-1.802h6.663c.605 0 1.166-.3 1.5-.802l1.247-1.872 1.547.928-1.296 1.943zm5.817-4.019c-.63 1.048-2.112 1.421-3.161.79l-2.285-1.37c-.63-.378-1.022-1.07-1.022-1.804 0-.453.15-.9.42-1.263l1.062-1.415 5.96 3.439-.974 1.623zm10.276 1.663L10.073 12.708c-.655-.379-1.063-1.084-1.063-1.842 0-.44.133-.86.385-1.22l2.262-3.231 22.297 12.863-2.794 5.596zm2.765-1.504l1.886-3.777 2.002-1c.01.11.03.224.03.331 0 2.283-1.714 4.154-3.918 4.446zm1.245-5.471L12.695 4.933l1.434-2.049c.474-.677 1.25-1.082 2.077-1.082.44 0 .876.115 1.26.335l22.973 13.128-5.269 2.634z"/><circle cx="29.734" cy="20.724" r="1"/></g></g></svg>