<svg xmlns="http://www.w3.org/2000/svg" width="12" height="12" viewBox="0 0 12 12"><g fill="#0A6CF4"><path d="M8.996 4.027c-.184-.194-.492-.203-.687-.018L5.203 6.955 3.72 5.434c-.187-.193-.495-.197-.687-.01-.193.188-.197.496-.01.689l1.817 1.864c.095.098.221.147.348.147.12 0 .24-.044.335-.133l3.454-3.276c.195-.185.203-.493.018-.688z"/><path d="M6 0C2.692 0 0 2.692 0 6s2.692 6 6 6 6-2.692 6-6-2.692-6-6-6zm0 11.027C3.228 11.027.973 8.772.973 6 .973 3.228 3.228.973 6 .973c2.772 0 5.027 2.255 5.027 5.027 0 2.772-2.255 5.027-5.027 5.027z"/></g></svg>